<?xml version="1.0" encoding="utf-8"?>
<!-- Generator: Adobe Illustrator 19.1.0, SVG Export Plug-In . SVG Version: 6.00 Build 0)  -->
<svg version="1.1" id="Layer_1" xmlns="http://www.w3.org/2000/svg" xmlns:xlink="http://www.w3.org/1999/xlink" x="0px" y="0px"
	 viewBox="0 0 172.69 23.37" style="enable-background:new 0 0 172.69 23.37;" xml:space="preserve">
<style type="text/css">
	.st0{fill:#494445;}
	.st1{fill:#009FE3;}
	.st2{clip-path:url(#SVGID_2_);}
	.st3{clip-path:url(#SVGID_4_);}
	.st4{clip-path:url(#SVGID_8_);}
	.st5{clip-path:url(#SVGID_10_);}
	.st6{clip-path:url(#SVGID_14_);}
	.st7{clip-path:url(#SVGID_16_);}
	.st8{clip-path:url(#SVGID_20_);}
	.st9{clip-path:url(#SVGID_22_);}
	.st10{fill:#FFFFFF;}
</style>
<path class="st0" d="M167.76,7.63c3.18,0,4.93,2.33,4.93,5.27c0,0.33-0.06,1.02-0.06,1.02h-7.67c0.22,1.96,1.65,2.98,3.33,2.98
	c1.79,0,3.12-1.24,3.12-1.24l1.16,1.92c0,0-1.7,1.68-4.47,1.68c-3.68,0-5.97-2.66-5.97-5.82C162.12,10.03,164.43,7.63,167.76,7.63
	 M169.86,12.01c-0.05-1.33-0.96-2.24-2.09-2.24c-1.42,0-2.42,0.85-2.72,2.24H169.86z"/>
<path class="st0" d="M63.27,7.63c3.18,0,4.93,2.33,4.93,5.27c0,0.33-0.07,1.02-0.07,1.02h-7.67c0.22,1.96,1.65,2.98,3.33,2.98
	c1.79,0,3.12-1.24,3.12-1.24l1.15,1.92c0,0-1.7,1.68-4.47,1.68c-3.68,0-5.97-2.66-5.97-5.82C57.62,10.03,59.93,7.63,63.27,7.63
	 M65.36,12.01c-0.04-1.33-0.96-2.24-2.09-2.24c-1.42,0-2.42,0.85-2.72,2.24H65.36z"/>
<path class="st0" d="M95.27,7.63c3.18,0,4.92,2.33,4.92,5.27c0,0.33-0.07,1.02-0.07,1.02h-7.67c0.22,1.96,1.66,2.98,3.33,2.98
	c1.79,0,3.12-1.24,3.12-1.24l1.15,1.92c0,0-1.7,1.68-4.47,1.68c-3.68,0-5.97-2.66-5.97-5.82C89.62,10.03,91.93,7.63,95.27,7.63
	 M97.36,12.01c-0.04-1.33-0.96-2.24-2.09-2.24c-1.42,0-2.42,0.85-2.72,2.24H97.36z"/>
<path class="st0" d="M139.45,10.73c0-0.33-0.17-0.48-0.48-0.48h-0.87V7.89h2.55c0.98,0,1.46,0.46,1.46,1.24v0.33
	c0,0.24-0.04,0.48-0.04,0.48h0.04c0.48-0.94,1.68-2.31,3.92-2.31c2.46,0,3.88,1.29,3.88,4.23v4.34c0,0.31,0.17,0.48,0.48,0.48h0.87
	v2.33h-2.64c-1.05,0-1.48-0.44-1.48-1.48v-5.1c0-1.35-0.35-2.27-1.74-2.27c-1.48,0-2.59,0.94-2.98,2.27
	c-0.15,0.46-0.22,0.96-0.22,1.48v5.1h-2.75V10.73"/>
<path class="st0" d="M131.29,7.63c3.4,0,6.1,2.42,6.1,5.82c0,3.42-2.7,5.82-6.1,5.82c-3.38,0-6.08-2.4-6.08-5.82
	C125.21,10.05,127.92,7.63,131.29,7.63 M131.29,16.92c1.81,0,3.31-1.39,3.31-3.46c0-2.05-1.5-3.46-3.31-3.46
	c-1.79,0-3.29,1.42-3.29,3.46C128,15.52,129.51,16.92,131.29,16.92z"/>
<path class="st0" d="M123.91,13.45c0,3.44-1.92,5.82-4.93,5.82c-2.4,0-3.33-1.57-3.33-1.57h-0.04c0,0,0.04,0.39,0.04,0.96v4.71
	h-2.77V10.73c0-0.33-0.17-0.48-0.48-0.48h-0.87V7.89h2.44c1,0,1.42,0.41,1.42,0.98c0,0.24,0,0.39,0,0.39h0.04
	c0,0,0.92-1.63,3.44-1.63C121.82,7.63,123.91,9.92,123.91,13.45 M118.36,16.93c1.63,0,2.77-1.37,2.77-3.48
	c0-2.2-1.29-3.44-2.79-3.44c-1.85,0-2.77,1.7-2.77,3.42C115.57,15.89,116.92,16.93,118.36,16.93z"/>
<path class="st0" d="M102.93,15.48c0,0,1.42,1.63,3.31,1.63c0.85,0,1.5-0.35,1.5-1.09c0-1.57-5.86-1.55-5.86-5.14
	c0-2.22,2.01-3.25,4.32-3.25c1.5,0,3.9,0.5,3.9,2.31v1.15h-2.44v-0.54c0-0.52-0.79-0.79-1.4-0.79c-0.98,0-1.66,0.35-1.66,1
	c0,1.74,5.91,1.39,5.91,5.1c0,2.09-1.85,3.4-4.27,3.4c-3.05,0-4.62-1.98-4.62-1.98L102.93,15.48"/>
<path class="st0" d="M153.54,15.48c0,0,1.41,1.63,3.31,1.63c0.85,0,1.5-0.35,1.5-1.09c0-1.57-5.86-1.55-5.86-5.14
	c0-2.22,2-3.25,4.32-3.25c1.5,0,3.9,0.5,3.9,2.31v1.15h-2.44v-0.54c0-0.52-0.79-0.79-1.39-0.79c-0.98,0-1.66,0.35-1.66,1
	c0,1.74,5.9,1.39,5.9,5.1c0,2.09-1.85,3.4-4.27,3.4c-3.05,0-4.62-1.98-4.62-1.98L153.54,15.48"/>
<path class="st0" d="M75.48,16.68c-0.76,0-2.2-0.26-2.2-2.09V10.1h2.53V9.07c0-0.81-0.36-1.18-1.18-1.18h-1.35V4.86h-2.7v3.03h-1.5
	v2.2h1.44v4.84c0,3.72,3.07,4.18,4.62,4.18c0.5,0,0.85-0.07,0.85-0.07v-2.42C75.98,16.63,75.78,16.68,75.48,16.68"/>
<path class="st0" d="M49.47,3.26c3.79,0,5.65,1.96,5.65,1.96l-1.61,2.05c0,0-1.61-1.38-3.97-1.38c-2.68,0-4.97,2.12-4.97,5.26
	c0,3.38,2.31,5.45,5.08,5.45c2.46,0,3.92-1.61,3.92-1.61v-1.15c0-0.33-0.18-0.48-0.48-0.48h-0.94v-2.42h2.51
	c1.05,0,1.48,0.44,1.48,1.46V19H53.7v-0.74c0-0.33,0.02-0.65,0.02-0.65h-0.04c0,0-1.65,1.66-4.56,1.66c-4.05,0-7.52-3.1-7.52-8.09
	C41.6,6.73,44.98,3.26,49.47,3.26"/>
<path class="st0" d="M77.54,3.52h5.51c2.83,0,4.82,1.75,4.82,4.67c0,2.79-1.92,3.95-2.57,4.08v0.04c0,0,0.48,0.22,0.76,0.79
	l1.5,2.98c0.24,0.46,0.61,0.5,1.09,0.5h0.28V19h-1.5c-1.15,0-1.66-0.18-2.16-1.15l-1.98-3.9c-0.33-0.61-0.65-0.72-1.46-0.72H80.4V19
	h-2.86V3.52 M82.66,10.78c1.44,0,2.29-0.89,2.29-2.44c0-1.53-0.85-2.4-2.25-2.4H80.4v4.84H82.66z"/>
<path class="st1" d="M33.96,20.57c0,0.8-0.65,1.45-1.45,1.45H1.45c-0.8,0-1.45-0.65-1.45-1.45V1.86c0-0.8,0.65-1.45,1.45-1.45h31.06
	c0.8,0,1.45,0.65,1.45,1.45V20.57"/>
<g>
	<defs>
		<path id="SVGID_1_" d="M32.51,22.02H3.73c0,0,0,0,0,0c0-4.41,0.95-8.6,2.66-12.37c2.27,2.13,5.02,4.09,8.04,4.96
			c1.52,0.69,3.06,1.1,4.56,1.1c0.28,0,0.55-0.01,0.83-0.04c6.84-0.72,11.37-8.57,13.21-12.12c0.52-0.86,0.84-1.47,0.93-1.64v18.66
			C33.96,21.37,33.31,22.02,32.51,22.02"/>
	</defs>
	<clipPath id="SVGID_2_">
		<use xlink:href="#SVGID_1_"  style="overflow:visible;"/>
	</clipPath>
	<g class="st2">
		<defs>
			<path id="SVGID_3_" d="M33.96,20.57c0,0.8-0.65,1.45-1.45,1.45H1.45c-0.8,0-1.45-0.65-1.45-1.45V1.86c0-0.4,2.65,3.26,6.43,6.91
				c3.82,3.69,8.81,7.38,13.39,6.9C28.95,14.7,33.96,1.06,33.96,1.86V20.57"/>
		</defs>
		<clipPath id="SVGID_4_">
			<use xlink:href="#SVGID_3_"  style="overflow:visible;"/>
		</clipPath>
		<g class="st3">
			<defs>
				<rect id="SVGID_5_" x="3.24" y="1.44" width="31" height="20.92"/>
			</defs>
			<clipPath id="SVGID_6_">
				<use xlink:href="#SVGID_5_"  style="overflow:visible;"/>
			</clipPath>
			<g transform="matrix(1 0 0 1 0 0)" style="clip-path:url(#SVGID_6_);">
				
					<image style="overflow:visible;" width="129" height="87" xlink:href="63BBDAB0E0ABCF19.jpg"  transform="matrix(0.2403 0 0 0.2404 3.239 1.44)">
				</image>
			</g>
		</g>
	</g>
</g>
<g>
	<defs>
		<path id="SVGID_7_" d="M33.96,1.91V1.86c0-0.8-0.65-1.45-1.45-1.45h0.02c0.8,0,1.45,0.65,1.45,1.45
			C33.98,1.86,33.98,1.88,33.96,1.91"/>
	</defs>
	<clipPath id="SVGID_8_">
		<use xlink:href="#SVGID_7_"  style="overflow:visible;"/>
	</clipPath>
	<g class="st4">
		<defs>
			<path id="SVGID_9_" d="M17.66,15.08C7.95,15.08,0.02,1.86,0.02,1.86c0-0.8,0.65-1.45,1.45-1.45h31.05c0.8,0,1.45,0.65,1.45,1.45
				C33.98,1.86,27.37,15.08,17.66,15.08"/>
		</defs>
		<clipPath id="SVGID_10_">
			<use xlink:href="#SVGID_9_"  style="overflow:visible;"/>
		</clipPath>
		<g class="st5">
			<defs>
				<rect id="SVGID_11_" x="32.04" width="2.44" height="2.2"/>
			</defs>
			<clipPath id="SVGID_12_">
				<use xlink:href="#SVGID_11_"  style="overflow:visible;"/>
			</clipPath>
			<g style="clip-path:url(#SVGID_12_);">
				
					<image style="overflow:visible;" width="10" height="9" xlink:href="63BBDAB0E0ABCF1B.jpg"  transform="matrix(0.2436 0 0 0.244 32.039 0)">
				</image>
			</g>
		</g>
	</g>
</g>
<g>
	<defs>
		<path id="SVGID_13_" d="M17.66,15.08c-1.1,0-2.18-0.17-3.23-0.47c-2.76-1.25-5.45-3.41-7.75-5.59c-0.1,0.21-0.2,0.42-0.29,0.63
			C5.52,8.83,4.72,7.99,4,7.17c-0.7-2.15-1.14-4.42-1.29-6.76h29.8c0.8,0,1.45,0.65,1.45,1.45c0-0.02,0-0.03-0.01-0.03
			c-0.06,0-0.37,0.67-0.91,1.72C30.87,7.11,25.2,15.08,17.66,15.08"/>
	</defs>
	<clipPath id="SVGID_14_">
		<use xlink:href="#SVGID_13_"  style="overflow:visible;"/>
	</clipPath>
	<g class="st6">
		<defs>
			<path id="SVGID_15_" d="M17.66,15.08C7.95,15.08,0.02,1.86,0.02,1.86c0-0.8,0.65-1.45,1.45-1.45h31.05c0.8,0,1.45,0.65,1.45,1.45
				C33.98,1.86,27.37,15.08,17.66,15.08"/>
		</defs>
		<clipPath id="SVGID_16_">
			<use xlink:href="#SVGID_15_"  style="overflow:visible;"/>
		</clipPath>
		<g class="st7">
			<defs>
				<rect id="SVGID_17_" x="2.28" width="31.96" height="15.4"/>
			</defs>
			<clipPath id="SVGID_18_">
				<use xlink:href="#SVGID_17_"  style="overflow:visible;"/>
			</clipPath>
			<g transform="matrix(1 0 0 1 0 0)" style="clip-path:url(#SVGID_18_);">
				
					<image style="overflow:visible;" width="133" height="64" xlink:href="63BBDAB0E0ABCF1E.jpg"  transform="matrix(0.2403 0 0 0.2406 2.279 0)">
				</image>
			</g>
		</g>
	</g>
</g>
<g>
	<defs>
		<path id="SVGID_19_" d="M33.03,3.55c0.54-1.05,0.85-1.72,0.91-1.72c0.01,0,0.01,0.01,0.01,0.03v0.05
			C33.87,2.08,33.56,2.68,33.03,3.55 M14.43,14.61c-3.02-0.87-5.77-2.83-8.04-4.96c0.1-0.21,0.19-0.42,0.29-0.63
			C8.98,11.2,11.67,13.35,14.43,14.61"/>
	</defs>
	<clipPath id="SVGID_20_">
		<use xlink:href="#SVGID_19_"  style="overflow:visible;"/>
	</clipPath>
	<g class="st8">
		<defs>
			<path id="SVGID_21_" d="M17.66,15.08C7.95,15.08,0.02,1.86,0.02,1.86c0-0.8,0.65-1.45,1.45-1.45h31.05c0.8,0,1.45,0.65,1.45,1.45
				C33.98,1.86,27.37,15.08,17.66,15.08"/>
		</defs>
		<clipPath id="SVGID_22_">
			<use xlink:href="#SVGID_21_"  style="overflow:visible;"/>
		</clipPath>
		<g class="st9">
			<defs>
				<rect id="SVGID_23_" x="6.12" y="1.44" width="28.12" height="13.48"/>
			</defs>
			<clipPath id="SVGID_24_">
				<use xlink:href="#SVGID_23_"  style="overflow:visible;"/>
			</clipPath>
			<g style="clip-path:url(#SVGID_24_);">
				
					<image style="overflow:visible;" width="117" height="56" xlink:href="63BBDAB0E0ABCF1F.jpg"  transform="matrix(0.2403 0 0 0.2406 6.119 1.44)">
				</image>
			</g>
		</g>
	</g>
</g>
<path class="st10" d="M33.63,0.95c-4.01,6.25-10.27,11.96-16.7,11.83c-2.37-0.05-5.07-0.74-7.36-2.61C7.86,8.78,6.15,6.59,5.5,3.5
	c-0.29,0-0.45,0-0.72,0c-1.04,0-1.66,0.92-1.54,1.77c0.03,0.19,0.07,0.42,0.1,0.65c0.49,3.03,2.29,6.44,5.28,8.64
	c2.32,1.71,5.21,2.84,8.35,2.83c5.65-0.02,11.71-3.59,16.98-12.86V1.86C33.96,1.52,33.83,1.2,33.63,0.95"/>
</svg>
